<?xml version="1.0" encoding="utf-8"?>
<!-- Generator: Adobe Illustrator 25.4.1, SVG Export Plug-In . SVG Version: 6.00 Build 0)  -->
<svg version="1.1" id="Camada_1" xmlns="http://www.w3.org/2000/svg" xmlns:xlink="http://www.w3.org/1999/xlink" x="0px" y="0px"
	 viewBox="0 0 121 121" style="enable-background:new 0 0 121 121;" xml:space="preserve">
<style type="text/css">
	.st0{fill:#CCA6FF;}
	.st1{fill:#FFFFFF;}
	.st2{fill:#FFF06F;}
	.st3{fill:#DC1150;}
	.st4{fill:#656565;}
	.st5{fill:none;}
</style>
<g>
	<path class="st4" d="M97.64,47.04c-0.03-0.04-0.07-0.08-0.13-0.11c-4.3-2.25-13.5,0.46-24.16,3.59c-1.68,0.5-3.39,1-5.11,1.48
		l-2.13-6.74c-0.21-0.66-0.68-1.21-1.28-1.51c-0.59-0.29-1.25-0.32-1.86-0.09l-1.84,0.69c-1.24,0.46-1.91,1.9-1.49,3.21l2.01,6.24
		c-7.96,2.04-16.74,3.75-22.23,1.39c-0.05-0.02-0.1-0.03-0.15-0.03c-0.04-0.01-0.08-0.02-0.12-0.02c-0.02,0-0.04-0.01-0.06-0.01
		c0,0-0.01,0-0.02,0c-0.82,0-15.49,0.13-18.96,8.92c-1.67,4.24-0.05,7.89,4.7,10.55c5.77,3.24,13.35,4.89,21.39,4.89
		c5.78,0,11.81-0.86,17.56-2.6c9.74-2.96,10.4-1.76,10.93-0.8c0.37,0.66,0.87,1.57,2.6,1.69c3,0.21,18.11,0.26,21.23-2.36
		c4.11-3.46,3.57-19.75,0.82-26.03C98.86,48.22,98.29,47.44,97.64,47.04z M73.57,51.24c8.57-2.52,16.73-4.91,21.45-4.26
		c-4.64,0.94-10.19,3.78-16.04,6.76c-2.89,1.48-5.84,2.98-8.82,4.34l-1.69-5.36C70.19,52.23,71.9,51.73,73.57,51.24z M61.09,47.1
		c-0.18-0.55,0.08-1.16,0.59-1.34l1.83-0.69c0.1-0.04,0.2-0.05,0.3-0.05c0.13,0,0.25,0.03,0.37,0.09c0.24,0.12,0.42,0.33,0.51,0.61
		l4.04,12.8l-3.54,1.32L61.09,47.1z M46.12,57.07c4.87,0,10.52-1.21,15.79-2.56l1.98,6.14c-0.39,0.14-0.79,0.28-1.18,0.41
		c-7.61,2.51-14.6,2.63-18.7,0.31c-2.05-1.16-3.4-2.92-4.03-5.22C41.78,56.79,43.86,57.07,46.12,57.07z M97.58,74.26
		c-2.29,1.93-15.29,2.35-20.16,2.02c-0.92-0.06-1.07-0.35-1.39-0.92c-0.2-0.37-0.43-0.71-0.72-0.99c5.43-0.21,17.81-0.89,23.76-2.94
		C98.7,72.73,98.2,73.73,97.58,74.26z M99.3,70.54c-6.05,2.32-20.84,2.97-25.32,3.12c-1.63-0.41-4.59-0.05-10.63,1.79
		c-13.37,4.06-28.2,3.21-37.78-2.16c-4.06-2.27-5.41-5.2-4.03-8.69c2.77-7,14.33-7.85,17.01-7.95c0.75,2.66,2.33,4.7,4.72,6.05
		c2.21,1.25,5.06,1.87,8.35,1.87c3.46,0,7.4-0.69,11.56-2.07c5.6-1.85,11.14-4.68,16.49-7.42c6.29-3.22,12.24-6.25,16.87-6.84
		c0.31-0.05,0.86,0.39,1.45,1.73C100.01,54.6,100.6,64.8,99.3,70.54z"/>
	<path class="st4" d="M60.5,0C27.09,0,0,27.09,0,60.5C0,93.91,27.09,121,60.5,121c33.41,0,60.5-27.09,60.5-60.5
		C121,27.09,93.91,0,60.5,0z M60.5,120C27.69,120,1,93.31,1,60.5S27.69,1,60.5,1S120,27.69,120,60.5S93.31,120,60.5,120z"/>
</g>
</svg>
