<?xml version="1.0" encoding="utf-8"?>
<!-- Generator: Adobe Illustrator 25.4.1, SVG Export Plug-In . SVG Version: 6.00 Build 0)  -->
<svg version="1.1" id="Camada_1" xmlns="http://www.w3.org/2000/svg" xmlns:xlink="http://www.w3.org/1999/xlink" x="0px" y="0px"
	 viewBox="0 0 121 121" style="enable-background:new 0 0 121 121;" xml:space="preserve">
<style type="text/css">
	.st0{fill:#CCA6FF;}
	.st1{fill:#FFFFFF;}
	.st2{fill:#FFF06F;}
	.st3{fill:#DC1150;}
	.st4{fill:#656565;}
	.st5{fill:none;}
</style>
<g>
	<path class="st4" d="M60.5,0C27.09,0,0,27.09,0,60.5C0,93.91,27.09,121,60.5,121c33.41,0,60.5-27.09,60.5-60.5
		C121,27.09,93.91,0,60.5,0z M60.5,120C27.69,120,1,93.31,1,60.5S27.69,1,60.5,1S120,27.69,120,60.5S93.31,120,60.5,120z"/>
	<path class="st4" d="M90.67,33.72c0.05-0.22,0-0.45-0.14-0.62c-0.14-0.17-0.35-0.28-0.57-0.29c-3.38-0.11-5.97,0.7-7.72,2.4
		c-0.55,0.53-1,1.15-1.37,1.85h-9.42c-1.04-8.97-11.07-9.29-11.17-9.29c-0.2,0-0.41,0.08-0.56,0.23s-0.22,0.35-0.21,0.56
		c0.02,0.27,1.26,27.43-20.22,35.18c-11.52,4.15-17.86,6.44-17.84,12.44c0,0.1,0.02,0.19,0.06,0.27c-0.03,0.08-0.06,0.16-0.06,0.24
		v5.21c0,0.09,0.02,0.17,0.04,0.26c0.61,1.68,10.48,3.09,21.99,3.09c8.57,0,18.04-0.78,25.3-2.81c0.01,0.16,0.01,0.33,0.02,0.48
		c0.02,0.86,0.05,2.3,1.31,2.3h16.62c1.33,0,2.5-0.89,2.87-2.26l1.07-7.24c0.22-0.7,2.25-7.84-0.72-20.58
		C87.93,46.48,90.64,33.84,90.67,33.72z M71.47,45.7c0.13-2.6,0.24-5.28,0.04-7.89h9c-0.57,1.36-0.86,2.96-0.86,4.83
		c0,2.56,0,9.36-2.66,12.01c-0.73,0.73-1.61,1.09-2.68,1.09c0,0-0.01,0-0.01,0c-0.8,0-1.4-0.22-1.83-0.68
		C71.09,53.61,71.27,49.77,71.47,45.7z M39.8,65.14c20.32-7.33,21.25-31.02,21.23-35.82c2.2,0.25,8.24,1.52,8.94,8
		c-0.01,0.04-0.02,0.07-0.02,0.11c0,0.07,0.02,0.12,0.05,0.18c0.23,2.61,0.1,5.36-0.03,8.02c-0.22,4.59-0.42,8.55,1.41,10.47
		c0.72,0.76,1.7,1.14,2.91,1.14c0,0,0.01,0,0.01,0c1.46,0,2.72-0.51,3.74-1.53c2.75-2.74,3.1-8.43,3.1-13.08
		c0-2.84,0.72-4.98,2.14-6.35c1.3-1.26,3.22-1.92,5.74-1.98c-0.6,3.11-2.33,13.46-0.53,21.18c0.49,2.12,0.83,4.06,1.07,5.86
		c-5.91,0.77-13,6.92-15.14,13.09c-1.99,0.23-4.16,0.55-6.57,1c-24.5,4.61-41.64,1.37-44.9,0.66C22.99,71.39,27.87,69.44,39.8,65.14
		z M88.13,82.64c-0.17,0.63-0.75,1.07-1.41,1.07H70.35c-0.04-0.22-0.04-0.59-0.05-0.83c-0.02-0.76-0.03-1.48-0.55-1.87
		c-0.26-0.19-0.6-0.25-0.93-0.15c-16.58,4.81-43.27,2.34-45.86,0.73v-3.98c4.08,0.86,21.17,3.81,45.18-0.72
		c12.44-2.34,19.06-1.25,20.97-0.81L88.13,82.64z M89.4,74.63c-1.69-0.4-6.2-1.14-14.15-0.29c2.19-5.82,8.85-11.54,14.42-12.25
		C90.47,68.75,89.76,73.04,89.4,74.63z"/>
</g>
</svg>
