<?xml version="1.0" encoding="utf-8"?>
<svg version="1.1" id="Camada_1" xmlns="http://www.w3.org/2000/svg" xmlns:xlink="http://www.w3.org/1999/xlink" x="0px" y="0px"
	 viewBox="0 0 121 121" style="enable-background:new 0 0 121 121;" xml:space="preserve">
<style type="text/css">
	.st0{fill:#DB1150;}
	.st1{fill:#FFFFFF;}
	.st2{fill:#FFF06F;}
	.st3{fill:none;}
	.st4{fill:#DC1150;}
	.st5{fill:#656565;}
	.st6{fill:#CCA6FF;}
</style>
<g>
	<path class="st5" d="M60.5,0C27.09,0,0,27.09,0,60.5C0,93.91,27.09,121,60.5,121c33.41,0,60.5-27.09,60.5-60.5
		C121,27.09,93.91,0,60.5,0z M60.5,120C27.69,120,1,93.31,1,60.5S27.69,1,60.5,1S120,27.69,120,60.5S93.31,120,60.5,120z"/>
	<path class="st5" d="M94.13,70.17c-0.04-0.34-0.31-0.61-0.65-0.66c-0.43-0.05-5.94-0.72-13.1-0.66
		C79.56,53.45,90.91,49.62,91.4,49.46c0.35-0.11,0.56-0.46,0.52-0.82c-0.36-2.63-0.61-4.03-0.81-4.81c0.18-0.14,0.3-0.34,0.3-0.59
		v-8.13c0-0.41-0.34-0.75-0.75-0.75H60.14c-0.41,0-0.75,0.34-0.75,0.75v8.28c0,0.2,0.08,0.39,0.22,0.53
		c0.14,0.14,0.33,0.22,0.53,0.22c0,0,0,0,0,0l24.67-0.12c-16.44,5.78-16.48,22.17-16.29,25.66c-3.24,0.47-6.46,1.16-9.43,2.19
		c-0.52,0.18-1.03,0.32-1.54,0.48L47.46,57.92c-1.15-1.64-3.33-2.14-5.07-1.16l-10.43,5.88c-1.9,1.07-2.67,3.38-1.81,5.38l2.73,6.28
		c-4.26-0.66-7.57-1.7-9.56-2.45c-1.31-0.49-2.75,0.14-3.27,1.45l-1.45,3.6v0c-0.3,0.75-0.29,1.58,0.05,2.32
		c0.34,0.74,0.94,1.29,1.71,1.56c3.89,1.36,11.65,3.58,21.03,3.58c5.85,0,12.33-0.86,18.9-3.33c5.22-1.96,8.49-1.91,9.72-1.78v3.48
		c0,0.41,0.34,0.75,0.75,0.75h21.13c0.96,0,1.88-0.41,2.52-1.13c0.64-0.72,0.94-1.68,0.83-2.63L94.13,70.17z M72.8,42.59
		l-11.91,0.06v-6.78H72.8V42.59z M80.97,42.55l-7.42,0.04v-3h3.71c0.21,0,0.38-0.17,0.38-0.38s-0.17-0.38-0.38-0.38h-3.71v-2.96
		h7.42V42.55z M81.72,42.55v-6.67h8.18v6.63L81.72,42.55z M89.67,44.26c0.18,0.8,0.45,2.45,0.68,4.01
		c-2.54,1.07-12.2,6.14-11.47,20.61c-2.82,0.06-5.83,0.24-8.87,0.62C69.75,65.75,69.69,48.17,89.67,44.26z M31.54,67.43
		c-0.56-1.29-0.06-2.79,1.17-3.48l10.43-5.88c1.07-0.6,2.4-0.3,3.11,0.71l9.81,14.05c-8.24,2.34-15.63,2.42-21.47,1.71
		c-0.01-0.07-0.02-0.15-0.05-0.22L31.54,67.43z M93.29,81.37c-0.36,0.4-0.86,0.63-1.4,0.63H71.51v-3.37c0-0.34-0.23-0.64-0.55-0.72
		c-0.16-0.04-3.92-1-11.19,1.73c-16.62,6.25-32.74,1.9-38.9-0.26c-0.38-0.13-0.68-0.41-0.84-0.77c-0.16-0.36-0.17-0.77-0.02-1.14
		l1.45-3.6c0.22-0.54,0.81-0.8,1.35-0.6c5.07,1.91,18.31,5.65,34.61,0.73c0.01,0,0.02-0.01,0.03-0.01c0.71-0.21,1.42-0.44,2.14-0.69
		c12.35-4.26,29.74-2.71,33.13-2.36l1.05,8.96C93.81,80.43,93.65,80.97,93.29,81.37z"/>
</g>
</svg>
