<?xml version="1.0" encoding="utf-8"?>
<svg version="1.1" id="Camada_1" xmlns="http://www.w3.org/2000/svg" xmlns:xlink="http://www.w3.org/1999/xlink" x="0px" y="0px"
	 viewBox="0 0 121 121" style="enable-background:new 0 0 121 121;" xml:space="preserve">
<style type="text/css">
	.st0{fill:#DB1150;}
	.st1{fill:#FFFFFF;}
	.st2{fill:#FFF06F;}
	.st3{fill:none;}
	.st4{fill:#DC1150;}
	.st5{fill:#656565;}
	.st6{fill:#CCA6FF;}
</style>
<g>
	<path class="st5" d="M60.5,0C27.09,0,0,27.09,0,60.5C0,93.91,27.09,121,60.5,121S121,93.91,121,60.5C121,27.09,93.91,0,60.5,0z
		 M60.5,120C27.69,120,1,93.31,1,60.5S27.69,1,60.5,1S120,27.69,120,60.5S93.31,120,60.5,120z"/>
	<path class="st5" d="M90.58,46.41c-0.03-1.5-1.23-2.39-3.21-2.39c-2.25,0-6.5,0.02-10.01,0.03c-0.65-7.69-8.93-10.09-9.02-10.12
		c-0.31-0.09-0.65,0.04-0.83,0.31c-0.04,0.06-4.31,6.4-10.32,11.35c-5.92,4.87-10.78,7.61-14.86,9.31c0,0-0.01,0-0.01,0
		c0,0-0.01,0.01-0.01,0.01c-3.61,1.5-6.6,2.17-9.15,2.74c-6.21,1.38-9.63,2.15-11.44,13.34c-0.29,1.79,0.22,3.47,1.51,5
		c3.86,4.57,14.04,6.6,18.38,6.63c4.14,0.03,8.68,0.13,13.48,0.24c5.95,0.13,11.77,0.26,16.88,0.26c8.1,0,14.44-0.32,16.78-1.48
		c3.43-1.69,2.5-9.46,2.39-10.26L90.58,46.41z M89.65,70.81c-3.68,0.95-7.88,1.35-12.83,1.47c1.99-10.27,9.76-12.11,12.58-12.43
		L89.65,70.81z M68.44,35.54c1.65,0.61,6.87,2.96,7.42,8.51c-0.92,0-1.74,0.01-2.41,0.01c-1.28,0.01-2.5,0.56-3.35,1.51
		c-0.72,0.81-1.49,1.64-2.27,2.46l-4.87-5.73c-0.02-0.02-0.04-0.02-0.06-0.03C65.71,39.3,67.69,36.61,68.44,35.54z M58.16,46.74
		c1.55-1.27,2.97-2.62,4.24-3.94l7.91,9.31c1.32,1.55,1.13,3.88-0.42,5.19l-0.18,0.15c-0.75,0.64-1.7,0.94-2.68,0.87
		c-0.98-0.08-1.87-0.54-2.51-1.29l-7.78-9.17C57.21,47.5,57.67,47.14,58.16,46.74z M56.15,48.34l5,5.89
		c-0.86,0.69-1.7,1.32-2.5,1.89L54.4,49.7c-0.01-0.01-0.02-0.02-0.03-0.03C54.95,49.25,55.54,48.81,56.15,48.34z M53.77,50.11
		C53.77,50.11,53.77,50.11,53.77,50.11l6.15,9.29c1.01,1.53,0.6,3.59-0.93,4.61l-0.18,0.12c-1.53,1.01-3.59,0.59-4.6-0.93
		l-6.15-9.28c-0.03-0.04-0.06-0.08-0.1-0.1C49.77,52.79,51.7,51.58,53.77,50.11z M47.38,54.12c0,0.07,0.01,0.14,0.06,0.2l3.62,5.47
		c-3.33,0.67-5.76-0.48-7.37-3.48l-0.12-0.32C44.77,55.46,46.04,54.84,47.38,54.12z M42.18,56.56l0.15,0.37
		c1.6,3.01,4,4.56,7.02,4.56c0.79,0,1.62-0.11,2.49-0.32c0.04-0.01,0.06-0.03,0.1-0.05l1.64,2.48c0.78,1.18,2.08,1.82,3.4,1.82
		c0.77,0,1.55-0.22,2.25-0.68l0.18-0.12c1.87-1.24,2.38-3.77,1.14-5.64l-1.07-1.61c0.85-0.6,1.74-1.26,2.64-2l1.83,2.15
		c0.77,0.9,1.84,1.45,3.02,1.55c0.12,0.01,0.24,0.01,0.36,0.01c1.05,0,2.06-0.37,2.87-1.06l0.18-0.15c1.86-1.58,2.09-4.39,0.5-6.25
		l-2.07-2.44c0.01-0.01,0.01-0.01,0.02-0.01c0.83-0.86,1.64-1.74,2.4-2.6c0.57-0.64,1.38-1,2.23-1.01
		c3.34-0.02,10.7-0.05,13.92-0.05c1.12,0,1.69,0.31,1.71,0.93l0.29,12.66c-2.94,0.37-11.29,2.38-13.32,13.19
		c-4.07,0.08-8.64-0.01-13.81-0.11C57.6,72.1,52.35,72,46.5,72c-1.3,0-2.52-0.05-3.68-0.12c-0.04-6.54-4.86-11.35-7.16-13.27
		C37.54,58.15,39.71,57.54,42.18,56.56z M33.5,59.1c0.39-0.09,0.8-0.18,1.23-0.28c1.92,1.54,7.25,6.42,7.33,13.01
		c-13.24-1.05-17.18-6.66-17.23-6.73c-0.02-0.03-0.06-0.05-0.08-0.08C26.44,60.69,28.99,60.1,33.5,59.1z M49.59,81.22
		c-2.77-0.06-5.44-0.1-7.96-0.12c-4.36-0.03-13.86-2.09-17.24-6.1c-1.01-1.19-1.39-2.43-1.17-3.79c0.29-1.8,0.61-3.28,0.97-4.54
		c1.78,1.92,7.73,6.82,22.31,6.82c1.05,0,2.08,0,3.1,0.01V81.22z M88.1,80.28c-3.48,1.72-19.14,1.37-32.96,1.06
		c-1.64-0.04-3.23-0.07-4.8-0.1v-7.73c4.32,0.03,8.28,0.11,11.87,0.17c3.77,0.07,7.23,0.14,10.41,0.14c6.81,0,12.36-0.31,17.13-1.51
		C90.02,75.26,89.8,79.44,88.1,80.28z"/>
</g>
</svg>
