<?xml version="1.0" encoding="utf-8"?>
<svg version="1.1" id="Camada_1" xmlns="http://www.w3.org/2000/svg" xmlns:xlink="http://www.w3.org/1999/xlink" x="0px" y="0px"
	 viewBox="0 0 121 121" style="enable-background:new 0 0 121 121;" xml:space="preserve">
<style type="text/css">
	.st0{fill:#DB1150;}
	.st1{fill:#FFFFFF;}
	.st2{fill:#FFF06F;}
	.st3{fill:none;}
	.st4{fill:#DC1150;}
	.st5{fill:#656565;}
	.st6{fill:#CCA6FF;}
</style>
<g>
	<path class="st5" d="M60.5,0C27.09,0,0,27.09,0,60.5C0,93.91,27.09,121,60.5,121c33.41,0,60.5-27.09,60.5-60.5
		C121,27.09,93.91,0,60.5,0z M60.5,120C27.69,120,1,93.31,1,60.5S27.69,1,60.5,1S120,27.69,120,60.5S93.31,120,60.5,120z"/>
	<path class="st5" d="M93.01,46.18c-0.55-1.14-1.23-1.82-2.07-2.06c-1.43-0.41-2.95,0.54-4.72,1.64c-2.97,1.86-6.63,4.14-11.79,1.95
		c4.01-5.87,3.17-11.57,0.24-14.04c-2.37-2-5.63-1.49-8.32,1.3c-2.19,2.27-4.33,4.31-6.43,6.15c-0.59-0.03-1.19,0.11-1.71,0.46
		c-0.61,0.42-1.03,1.05-1.17,1.78c-0.01,0.07-0.01,0.15-0.02,0.22c-1.16,0.95-2.3,1.83-3.43,2.66c-0.14-0.05-0.28-0.1-0.42-0.13
		c-0.73-0.14-1.47,0.01-2.09,0.43c-0.61,0.42-1.03,1.05-1.17,1.78c-0.03,0.17-0.05,0.35-0.05,0.52c-1.08,0.71-2.14,1.37-3.18,1.99
		c-0.88-0.47-1.99-0.46-2.87,0.14c-0.74,0.5-1.15,1.3-1.2,2.13c-1.58,0.81-3.1,1.53-4.55,2.16c-0.02,0.01-0.04,0.02-0.06,0.03
		c-4.19,1.82-7.84,2.96-10.79,3.88c-4.13,1.29-6.85,2.15-8.11,3.87c-1.6,2.21-0.37,8.38,3.56,12.75c6.94,7.72,13.91,8.62,19.9,8.85
		c2.7,0.11,5.53-0.24,8.82-0.63c3.77-0.46,8.05-0.97,13.47-1.01c4.18-0.04,7.58,0.5,10.85,1.01c2.83,0.44,5.55,0.86,8.53,0.86
		c1.46,0,2.98-0.1,4.6-0.35c3.86-0.6,6.4-2.17,7.55-4.68c2.02-4.42-1.05-10.21-1.86-11.6C96.53,61.57,95.03,50.34,93.01,46.18z
		 M67.43,36.02c2.16-2.24,4.5-2.68,6.27-1.19c2.48,2.1,2.88,7.2-0.64,12.23c-2.71-1.32-4.93-0.95-7.55,0.34l-3.43-5.06
		c-0.16-0.24-0.36-0.43-0.57-0.6C63.45,40,65.42,38.1,67.43,36.02z M58.65,42.18c0.35-0.24,0.75-0.35,1.14-0.35
		c0.65,0,1.3,0.31,1.69,0.89l6.29,9.29c0.63,0.93,0.39,2.2-0.54,2.83c-0.93,0.63-2.2,0.38-2.83-0.54l-6.29-9.29
		C57.47,44.08,57.72,42.81,58.65,42.18z M57.35,45.26c0.04,0.07,0.07,0.14,0.11,0.21l3.22,4.74c-0.82,0.51-1.7,1.05-2.67,1.62
		l-3.07-4.53c-0.03-0.04-0.06-0.07-0.09-0.11C55.68,46.57,56.51,45.93,57.35,45.26z M50.66,48.45c0.1-0.54,0.41-1,0.85-1.3
		c0.34-0.23,0.73-0.35,1.13-0.35c0.13,0,0.26,0.01,0.39,0.04c0.54,0.1,1,0.41,1.3,0.85l5.73,8.45c0.3,0.45,0.41,0.99,0.31,1.53
		s-0.41,1-0.85,1.3c-0.45,0.3-0.99,0.41-1.53,0.31c-0.54-0.1-1-0.41-1.3-0.85l-5.73-8.45C50.66,49.53,50.55,48.98,50.66,48.45z
		 M50.3,50.37c0.01,0.02,0.02,0.04,0.03,0.06l2.77,4.09c-0.93,0.46-1.83,0.88-2.69,1.24l-2.6-3.84
		C48.63,51.44,49.46,50.92,50.3,50.37z M44.24,51.58c0.35-0.24,0.75-0.35,1.14-0.35c0.65,0,1.3,0.31,1.69,0.89l5.36,7.9
		c0.63,0.93,0.39,2.2-0.54,2.83c-0.93,0.63-2.2,0.38-2.83-0.54l-5.36-7.9C43.07,53.48,43.31,52.21,44.24,51.58z M42.94,54.63
		c0.04,0.08,0.07,0.16,0.13,0.23l1.83,2.7c-1.67,0.32-3.04,0.32-4.04-0.04c-0.66-0.24-1.16-0.62-1.51-1.17
		C40.5,55.83,41.7,55.26,42.94,54.63z M37.95,56.95c0.53,0.94,1.33,1.6,2.4,1.98c1.49,0.53,3.39,0.44,5.46-0.03l2.61,3.85
		c0.54,0.79,1.42,1.22,2.31,1.22c0.54,0,1.08-0.15,1.56-0.48c1.27-0.86,1.61-2.6,0.74-3.87l-1.76-2.6c0.9-0.39,1.8-0.82,2.68-1.26
		l2.1,3.1c0.54,0.79,1.42,1.22,2.31,1.22c0.54,0,1.08-0.16,1.56-0.48c0.61-0.42,1.03-1.05,1.17-1.78s-0.01-1.47-0.43-2.09
		l-1.81-2.67c0.96-0.57,1.85-1.12,2.66-1.62l2.23,3.3c0.54,0.79,1.42,1.22,2.31,1.22c0.54,0,1.08-0.15,1.56-0.48
		c0.61-0.42,1.03-1.05,1.17-1.78c0.14-0.73-0.01-1.47-0.43-2.09l-2.02-2.98c2.28-1.08,4.07-1.29,6.29-0.12
		c6.5,3.43,11.24,0.47,14.37-1.49c1.46-0.91,2.72-1.7,3.51-1.47c0.41,0.12,0.78,0.53,1.14,1.27c0.71,1.46,1.33,3.85,1.76,6.59
		c-8.39-0.49-19.39,3.7-29.13,7.42c-7.24,2.77-14.07,5.35-18.16,5.3c-10.33-0.2-13.63-5.04-14.49-6.82
		C33.57,58.68,35.67,57.92,37.95,56.95z M20.3,63.94c0.96-1.33,3.64-2.16,7.34-3.32c1.01-0.32,2.1-0.66,3.27-1.04
		c0.86,1.92,4.21,7.11,15.2,7.33c0.07,0,0.13,0,0.2,0c4.23,0,10.73-2.48,18.23-5.35c9.73-3.72,20.73-7.92,28.97-7.36
		c0.23,1.7,0.38,3.51,0.43,5.3c-1.83,0.15-14.11,1.5-22.11,11.89c0,0,0,0,0,0.01c-1.87-0.07-3.83-0.06-5.91,0.13
		c-4.05,0.38-7.6,1.65-11.03,2.88c-4.73,1.69-9.62,3.44-16.02,2.93c-12.53-1.01-18.18-11.03-18.91-12.44
		C20.04,64.48,20.15,64.16,20.3,63.94z M93.96,60.24c0.01,2.58-0.21,5.07-0.76,7.12c-0.05,0.05-0.11,0.1-0.14,0.16
		c-3.32,5.6-8.15,5.09-14.84,4.38c-1.71-0.18-3.52-0.37-5.45-0.48C80.53,61.73,92.11,60.39,93.96,60.24z M95,79.24
		c-0.92,2.02-3.08,3.3-6.41,3.82c-4.71,0.73-8.58,0.13-12.68-0.51c-3.25-0.5-6.61-1.03-10.8-1.03c-0.1,0-0.19,0-0.29,0
		c-5.51,0.03-9.83,0.56-13.64,1.02c-3.22,0.39-6,0.72-8.58,0.63c-5.68-0.22-12.29-1.07-18.84-8.36c-1.93-2.14-3.05-4.63-3.55-6.72
		c2.64,3.7,8.52,9.92,18.55,10.73c0.83,0.07,1.63,0.1,2.41,0.1c5.56,0,9.96-1.58,14.24-3.11c3.49-1.25,6.79-2.43,10.66-2.79
		c4.45-0.42,8.45,0.01,11.98,0.38c6.48,0.69,11.68,1.23,15.45-3.85C94.46,71.35,96.53,75.91,95,79.24z"/>
</g>
</svg>
