<?xml version="1.0" encoding="utf-8"?>
<!-- Generator: Adobe Illustrator 25.4.1, SVG Export Plug-In . SVG Version: 6.00 Build 0)  -->
<svg version="1.1" id="Camada_1" xmlns="http://www.w3.org/2000/svg" xmlns:xlink="http://www.w3.org/1999/xlink" x="0px" y="0px"
	 viewBox="0 0 121 121" style="enable-background:new 0 0 121 121;" xml:space="preserve">
<style type="text/css">
	.st0{fill:#CCA6FF;}
	.st1{fill:#FFFFFF;}
	.st2{fill:#FFF06F;}
	.st3{fill:#DC1150;}
	.st4{fill:#656565;}
	.st5{fill:none;}
</style>
<g>
	<path class="st4" d="M102.15,66.84c-0.54-0.53-1.26-0.8-2-0.79L67.68,66.9c-0.05,0-0.09,0.02-0.14,0.03
		c-0.68-1.14-1.33-2.33-1.99-3.51c-2.29-4.15-4.67-8.44-7.79-10.59c-1.19-0.82-2.7-1.09-4.13-0.75L33.12,56.2
		c-1.67,0.39-2.74,2.02-2.44,3.67l0.96,7.84l-9.1,0.25c-1.45,0.04-2.59,1.2-2.59,2.65v0.67c0,2.36,1.92,4.27,4.27,4.27h72.48
		c3.46,0,6.27-2.81,6.27-6.27v-0.46C102.98,68.07,102.68,67.36,102.15,66.84z M24.23,74.05c-1.53,0-2.77-1.24-2.77-2.77v-0.67
		c0-0.63,0.49-1.14,1.12-1.15l9.24-0.25l0.6,4.84H24.23z M33.93,74.05l-0.68-5.55c0-0.03,0.01-0.05,0.01-0.08
		c0-0.08-0.03-0.14-0.05-0.21l-1.05-8.56c-0.16-0.9,0.41-1.77,1.28-1.98l7.29-1.46l3.99,17.85H33.93z M45.49,74.05l-4.02-17.99
		l7.61-1.53l8.89,19.52H45.49z M58.8,74.05l-8.96-19.67l4.11-0.83c1.04-0.25,2.12-0.06,2.96,0.52c2.83,1.95,5.11,6.08,7.33,10.08
		c2.2,3.98,4.31,7.79,7.02,9.9H58.8z M101.48,69.27c0,2.63-2.14,4.77-4.77,4.77H74.46c-2.29-0.62-4.23-2.87-6.03-5.67l31.75-0.83
		c0.35,0,0.67,0.12,0.92,0.36c0.25,0.24,0.38,0.56,0.38,0.91V69.27z"/>
	<path class="st4" d="M60.5,0C27.09,0,0,27.09,0,60.5C0,93.91,27.09,121,60.5,121c33.41,0,60.5-27.09,60.5-60.5
		C121,27.09,93.91,0,60.5,0z M60.5,120C27.69,120,1,93.31,1,60.5S27.69,1,60.5,1S120,27.69,120,60.5S93.31,120,60.5,120z"/>
</g>
</svg>
